<svg width="800" height="500" viewBox="0 0 800 500" fill="none" xmlns="http://www.w3.org/2000/svg">
  <rect width="800" height="500" rx="12" fill="#080C1A"/>
  <rect x="1" y="1" width="798" height="498" rx="11" stroke="#18233C" stroke-width="2"/>
  <!-- Top bar -->
  <rect x="20" y="20" width="760" height="40" rx="8" fill="#0F182E"/>
  <circle cx="45" cy="40" r="6" fill="#EF4444"/>
  <circle cx="65" cy="40" r="6" fill="#F59E0B"/>
  <circle cx="85" cy="40" r="6" fill="#10B981"/>
  <rect x="115" y="30" width="310" height="20" rx="4" fill="#1A284A"/>
  <text x="125" y="44" font-family="monospace" font-size="11" fill="#38BDF8">Nexus Cognitive AI &amp; Document OCR</text>
  
  <!-- Left OCR Visual Input -->
  <rect x="20" y="75" width="360" height="405" rx="8" fill="#0F182E"/>
  <rect x="40" y="95" width="320" height="180" rx="6" fill="#14213D" stroke="#38BDF8" stroke-dasharray="4 4"/>
  <path d="M70 140H220M70 165H300M70 190H260M70 215H180" stroke="#64748B" stroke-width="3" stroke-linecap="round"/>
  <rect x="180" y="130" width="120" height="30" rx="4" fill="#0284C7" fill-opacity="0.3" stroke="#38BDF8"/>
  <text x="240" y="150" text-anchor="middle" font-family="monospace" font-size="10" fill="#38BDF8">AI_PARSER_ACTIVE</text>
  
  <rect x="40" y="300" width="320" height="160" rx="6" fill="#14213D"/>
  <text x="60" y="335" font-family="system-ui, sans-serif" font-size="13" font-weight="700" fill="#F8FAFC">Extraction Pipeline</text>
  <text x="60" y="365" font-family="monospace" font-size="11" fill="#10B981">✓ Item Tables: 100% Parsed</text>
  <text x="60" y="390" font-family="monospace" font-size="11" fill="#10B981">✓ Tax &amp; GST: Verified</text>
  <text x="60" y="415" font-family="monospace" font-size="11" fill="#10B981">✓ Ingestion Time: 3.2 Seconds</text>

  <!-- Right ERP Synchronizer Output -->
  <rect x="400" y="75" width="380" height="405" rx="8" fill="#0F182E"/>
  <rect x="420" y="95" width="340" height="230" rx="6" fill="#14213D"/>
  <rect x="435" y="115" width="310" height="32" rx="4" fill="#1E2E52"/>
  <rect x="435" y="155" width="310" height="28" rx="4" fill="#182542"/>
  <rect x="435" y="190" width="310" height="28" rx="4" fill="#182542"/>
  <rect x="435" y="225" width="310" height="28" rx="4" fill="#182542"/>

  <text x="590" y="380" text-anchor="middle" font-family="system-ui, sans-serif" font-size="16" font-weight="700" fill="#F8FAFC">Automated ERP Synchronization</text>
  <text x="590" y="405" text-anchor="middle" font-family="system-ui, sans-serif" font-size="12" fill="#94A3B8">Eliminates 90% of Manual Ledger Workload</text>
</svg>
